<svg width="708" height="579" viewBox="0 0 708 579" fill="none" xmlns="http://www.w3.org/2000/svg">
<path fill="#4CAF50" d="M577.408 318.212H634.398C653.782 318.212 672.373 325.239 686.079 337.748C699.786 350.257 707.486 367.222 707.486 384.912C707.486 421.749 674.763 451.612 634.398 451.612H73.088C53.704 451.612 35.113 444.585 21.407 432.076C7.7 419.567 0 402.602 0 384.912C0 348.075 32.723 318.212 73.088 318.212H202.821C197.735 311.236 193.118 302.968 189.115 293.206H55.41C53.668 227.116 79.594 163.146 127.307 115.806C142.446 100.786 163.892 87.844 188.301 77.173C193.277 62.46 199.2 50.293 205.68 40.613C224.801 12.049 249.658 0.00100708 275.162 0.00100708C300.666 0.00100708 325.523 12.049 344.643 40.613C344.925 41.035 345.206 41.461 345.487 41.892C348.299 41.81 351.052 41.768 353.741 41.768C375.915 41.768 402.494 44.578 429.915 49.99C431.747 46.64 433.639 43.514 435.582 40.612C454.703 12.048 479.56 0 505.064 0C530.568 0 555.426 12.048 574.546 40.612C589.226 62.543 601.051 97.239 605.469 145.381C636.814 188.248 653.317 240.041 651.915 293.205H591.112C587.11 302.967 582.493 311.235 577.406 318.211L577.408 318.212ZM347.506 318.212H432.724C427.638 311.236 423.021 302.968 419.018 293.206H361.212C357.21 302.967 352.593 311.235 347.506 318.211V318.212ZM299.138 46.234C291.726 40.608 283.634 37.811 275.164 37.811C261.649 37.811 249.1 44.932 238.733 59.299C234.846 64.686 231.266 71.091 228.057 78.521C222.782 90.734 218.51 105.717 215.523 123.499C214.043 132.312 212.879 141.813 212.065 152.005C211.17 163.218 210.7 175.267 210.7 188.157C210.7 226.629 214.891 254.223 222.047 273.645C225.979 281.24 230.453 287.723 235.286 293.204C244.629 303.802 255.313 310.655 266.006 314.557C268.998 314.987 272.055 315.186 275.164 315.186C291.768 315.186 306.914 309.517 318.347 293.205C331.412 274.564 339.628 242.022 339.628 188.158C339.628 132.009 330.701 91.823 316.659 67.205C311.456 58.084 305.552 51.1 299.139 46.233L299.138 46.234ZM546.56 67.206C535.344 47.542 520.865 37.812 505.066 37.812C491.554 37.812 479.008 44.929 468.643 59.29C465.311 63.906 462.205 69.27 459.364 75.387C453.441 88.141 448.673 104.166 445.426 123.501C443.731 133.592 442.451 144.584 441.637 156.483C440.958 166.41 440.603 176.968 440.603 188.16C440.603 226.632 444.794 254.226 451.95 273.648C455.882 281.243 460.356 287.726 465.189 293.207C474.532 303.805 485.216 310.658 495.909 314.56C498.901 314.99 501.958 315.189 505.067 315.189C521.671 315.189 536.817 309.52 548.25 293.208C561.315 274.567 569.531 242.025 569.531 188.161C569.531 151.758 565.779 122.065 559.313 98.974C555.806 86.449 551.5 75.866 546.562 67.208L546.56 67.206ZM551.238 143.288C554.87 156.324 556.969 172.813 556.969 192.678C556.969 249.293 539.92 273.32 518.921 273.32C497.922 273.32 480.873 249.293 480.873 192.678C480.873 189.891 480.914 187.17 480.995 184.515C481.443 169.837 483.108 157.198 485.724 146.634C488.142 147.515 490.752 147.995 493.473 147.995C505.985 147.995 516.143 137.837 516.143 125.325C516.143 118.952 513.508 113.19 509.268 109.07C512.351 107.605 515.586 106.869 518.92 106.869C532.551 106.869 544.518 119.171 551.237 143.291L551.238 143.288ZM322.502 147.819C325.413 160.077 327.066 175.048 327.066 192.678C327.066 249.293 310.017 273.32 289.018 273.32C268.019 273.32 250.97 249.293 250.97 192.678C250.97 189.663 251.018 186.727 251.113 183.868C251.607 168.96 253.361 156.174 256.096 145.547C259.175 147.113 262.659 147.995 266.348 147.995C278.86 147.995 289.018 137.837 289.018 125.325C289.018 118.525 286.018 112.421 281.27 108.264C283.772 107.335 286.363 106.868 289.018 106.868C303.478 106.868 316.065 120.711 322.502 147.821V147.819ZM658.704 476.619L665.895 527.723C667.719 540.687 661.203 553.56 647.945 563.183C634.687 572.807 615.913 578.291 596.229 578.291H111.257C91.573 578.291 72.799 572.807 59.541 563.183C46.283 553.56 39.767 540.688 41.591 527.724L48.782 476.62H658.706L658.704 476.619Z" />
</svg>