<?xml version="1.0" encoding="UTF-8" standalone="no"?><!DOCTYPE svg PUBLIC "-//W3C//DTD SVG 1.1//EN" "http://www.w3.org/Graphics/SVG/1.1/DTD/svg11.dtd"><svg width="100%" height="100%" viewBox="0 0 708 579" version="1.1" xmlns="http://www.w3.org/2000/svg" xmlns:xlink="http://www.w3.org/1999/xlink" xml:space="preserve" xmlns:serif="http://www.serif.com/" style="fill-rule:evenodd;clip-rule:evenodd;stroke-linejoin:round;stroke-miterlimit:2;"><path d="M577.408,318.212l56.99,-0c19.384,0 37.975,7.027 51.681,19.536c13.707,12.509 21.407,29.474 21.407,47.164c0,36.837 -32.723,66.7 -73.088,66.7l-561.31,0c-19.384,-0 -37.975,-7.027 -51.681,-19.536c-13.707,-12.509 -21.407,-29.474 -21.407,-47.164c-0,-36.837 32.723,-66.7 73.088,-66.7l129.733,0c-5.086,-6.976 -9.703,-15.244 -13.706,-25.006l-133.705,-0c-1.742,-66.09 24.184,-130.06 71.897,-177.4c15.139,-15.02 36.585,-27.962 60.994,-38.633c4.976,-14.713 10.899,-26.88 17.379,-36.56c19.121,-28.564 43.978,-40.612 69.482,-40.612c25.504,0 50.362,12.048 69.482,40.612c0.282,0.422 0.563,0.848 0.844,1.279c2.812,-0.082 5.565,-0.124 8.254,-0.124c22.174,-0 48.753,2.81 76.174,8.222c1.832,-3.35 3.724,-6.476 5.667,-9.378c19.121,-28.564 43.978,-40.612 69.482,-40.612c25.504,0 50.362,12.048 69.482,40.612c14.68,21.931 26.505,56.627 30.923,104.769c31.345,42.867 47.848,94.66 46.446,147.824l-60.803,-0c-4.002,9.762 -8.619,18.03 -13.706,25.006Zm-229.902,-0l85.218,0c-5.086,-6.976 -9.703,-15.244 -13.706,-25.006l-57.806,-0c-4.002,9.762 -8.619,18.03 -13.706,25.006Zm-48.368,-271.978c-7.412,-5.626 -15.504,-8.423 -23.974,-8.423c-13.515,0 -26.064,7.121 -36.431,21.488c-3.887,5.387 -7.467,11.792 -10.676,19.222c-5.275,12.213 -9.547,27.196 -12.534,44.978c-1.48,8.813 -2.644,18.314 -3.458,28.506c-0.895,11.213 -1.365,23.262 -1.365,36.152c0,38.472 4.191,66.066 11.347,85.488c3.932,7.595 8.406,14.078 13.239,19.559c9.343,10.598 20.027,17.451 30.72,21.353c2.992,0.43 6.049,0.629 9.158,0.629c16.604,0 31.75,-5.669 43.183,-21.981c13.065,-18.641 21.281,-51.183 21.281,-105.047c0,-56.149 -8.927,-96.335 -22.969,-120.953c-5.203,-9.121 -11.107,-16.105 -17.52,-20.972Zm247.422,20.972c-11.216,-19.664 -25.695,-29.394 -41.494,-29.394c-13.512,0 -26.058,7.117 -36.423,21.478c-3.332,4.616 -6.438,9.98 -9.279,16.097c-5.923,12.754 -10.691,28.779 -13.938,48.114c-1.695,10.091 -2.975,21.083 -3.789,32.982c-0.679,9.927 -1.034,20.485 -1.034,31.677c0,38.472 4.191,66.066 11.347,85.488c3.932,7.595 8.406,14.078 13.239,19.559c9.343,10.598 20.027,17.451 30.72,21.353c2.992,0.43 6.049,0.629 9.158,0.629c16.604,0 31.75,-5.669 43.183,-21.981c13.065,-18.641 21.281,-51.183 21.281,-105.047c0,-36.403 -3.752,-66.096 -10.218,-89.187c-3.507,-12.525 -7.813,-23.108 -12.751,-31.766Zm4.678,76.082c3.632,13.036 5.731,29.525 5.731,49.39c0,56.615 -17.049,80.642 -38.048,80.642c-20.999,0 -38.048,-24.027 -38.048,-80.642c0,-2.787 0.041,-5.508 0.122,-8.163c0.448,-14.678 2.113,-27.317 4.729,-37.881c2.418,0.881 5.028,1.361 7.749,1.361c12.512,-0 22.67,-10.158 22.67,-22.67c0,-6.373 -2.635,-12.135 -6.875,-16.255c3.083,-1.465 6.318,-2.201 9.652,-2.201c13.631,0 25.598,12.302 32.317,36.42Zm-228.736,4.531c2.911,12.258 4.564,27.229 4.564,44.859c0,56.615 -17.049,80.642 -38.048,80.642c-20.999,0 -38.048,-24.027 -38.048,-80.642c0,-3.015 0.048,-5.951 0.143,-8.81c0.494,-14.908 2.248,-27.694 4.983,-38.321c3.079,1.566 6.563,2.448 10.252,2.448c12.512,0 22.67,-10.158 22.67,-22.67c0,-6.8 -3,-12.904 -7.748,-17.061c2.502,-0.929 5.093,-1.396 7.748,-1.396c14.46,0 27.047,13.843 33.484,40.95Zm336.202,328.8l7.191,51.104c1.824,12.964 -4.692,25.837 -17.95,35.46c-13.258,9.624 -32.032,15.108 -51.716,15.108l-484.972,0c-19.684,0 -38.458,-5.484 -51.716,-15.108c-13.258,-9.624 -19.774,-22.496 -17.95,-35.46l7.191,-51.104l609.924,0Z"/></svg>